<svg width="192" height="192" viewBox="0 0 192 192" fill="none" xmlns="http://www.w3.org/2000/svg">
<rect width="192" height="192" fill="white"/>
<path d="M97.5681 67.87C60.9986 64.6706 18.4062 69.0533 16.5966 88.9736L16.5895 89.0547C15.2186 105.412 40.2027 119.656 92.6361 124.243C128.443 127.376 172.646 122.528 174.435 102.851L174.442 102.77C175.819 86.3384 149.736 72.4341 97.5681 67.87ZM93.6524 110.258C58.7078 107.201 31.1841 96.4729 29.2965 90.0915C32.2783 84.6536 53.4784 77.6027 95.1745 81.2506C131.319 84.4129 157.38 94.2913 160.625 101.581C156.153 107.25 134.062 113.794 93.6657 110.26L93.6524 110.258Z" fill="url(#paint0_linear_4034_9389)"/>
<defs>
<linearGradient id="paint0_linear_4034_9389" x1="36.573" y1="79.557" x2="175.78" y2="96.5335" gradientUnits="userSpaceOnUse">
<stop stop-color="#FECA0F"/>
<stop offset="1" stop-color="#FCF1CA"/>
</linearGradient>
</defs>
</svg>
