<svg width="120" height="120" viewBox="0 0 120 120" fill="none" xmlns="http://www.w3.org/2000/svg">
<rect width="120" height="120" fill="white"/>
<path d="M61.0056 28.1951C43.2151 26.6386 22.4944 28.7708 21.6141 38.4617L21.6106 38.5012C20.9437 46.4586 33.0981 53.3881 58.6063 55.6197C76.0258 57.1437 97.5302 54.7854 98.4002 45.2128L98.4037 45.1733C99.0738 37.1797 86.3847 30.4155 61.0056 28.1951ZM59.1007 48.8165C42.1006 47.3291 28.7107 42.11 27.7924 39.0056C29.243 36.3601 39.5566 32.9299 59.8412 34.7046C77.4252 36.243 90.1035 41.0487 91.6822 44.5952C89.5065 47.3528 78.7593 50.5364 59.1071 48.817L59.1007 48.8165Z" fill="url(#paint0_linear_4034_9389)"/>
<path d="M28.2558 79.3574C28.2558 80.7223 27.9818 81.9269 27.4337 82.9713C26.8857 84.0156 26.1102 84.8325 25.1072 85.4219C24.1146 86.0113 22.941 86.306 21.5864 86.306C20.9557 86.306 20.3456 86.2646 19.7562 86.1819C19.1668 86.1095 18.5878 85.9854 18.0191 85.8096C17.4504 85.6235 16.8817 85.3805 16.313 85.0807V80.6293C17.1402 81.1669 17.9984 81.5754 18.8877 81.8546C19.7769 82.1337 20.5989 82.2733 21.3538 82.2733C21.9121 82.2733 22.3723 82.1648 22.7342 81.9476C23.1064 81.7305 23.3804 81.4358 23.5562 81.0635C23.7423 80.6913 23.8354 80.2725 23.8354 79.8072C23.8354 79.3109 23.7578 78.8766 23.6027 78.5044C23.4476 78.1218 23.1478 77.7444 22.7032 77.3721C22.2689 76.9896 21.6278 76.5501 20.7799 76.0538C20.1181 75.6609 19.5184 75.2576 18.9807 74.844C18.4534 74.4304 17.9984 73.9754 17.6158 73.4791C17.2436 72.9724 16.9592 72.3882 16.7628 71.7265C16.5663 71.0647 16.4681 70.284 16.4681 69.3844C16.4577 68.1023 16.7059 66.9804 17.2126 66.0187C17.7296 65.0571 18.4689 64.3126 19.4305 63.7853C20.4025 63.2476 21.5657 62.9839 22.9203 62.9943C23.8406 62.9943 24.7401 63.1183 25.6191 63.3665C26.5083 63.6147 27.3614 63.9662 28.1782 64.4212L26.9839 68.2677C26.2498 67.8231 25.557 67.4974 24.9056 67.2906C24.2542 67.0734 23.6441 66.9649 23.0754 66.9649C22.5791 66.9649 22.1603 67.0631 21.8191 67.2595C21.4882 67.4457 21.2349 67.7042 21.0591 68.0351C20.8936 68.3659 20.8109 68.7433 20.8109 69.1673C20.8109 69.705 20.8936 70.1599 21.0591 70.5322C21.2245 70.9044 21.5347 71.2715 21.9897 71.6334C22.455 71.985 23.1219 72.4089 23.9905 72.9052C24.9314 73.4532 25.7173 74.0375 26.348 74.6579C26.9788 75.2679 27.4544 75.9555 27.775 76.7207C28.0955 77.4755 28.2558 78.3544 28.2558 79.3574ZM36.0815 68.2987C37.767 68.2987 39.0492 68.8209 39.9281 69.8652C40.8173 70.8993 41.2619 72.4451 41.2619 74.5028V85.9958H38.2375L37.5705 83.6692H37.4775C37.1259 84.2586 36.7485 84.7498 36.3452 85.1427C35.9523 85.5356 35.5025 85.8251 34.9958 86.0113C34.4892 86.2077 33.8946 86.306 33.2122 86.306C32.2506 86.306 31.4699 86.0475 30.8702 85.5305C30.2808 85.0135 29.8517 84.3413 29.5828 83.5141C29.314 82.6869 29.1796 81.808 29.1796 80.8774C29.1796 79.0679 29.681 77.6978 30.684 76.7672C31.687 75.8366 33.1139 75.3351 34.9648 75.2628L37.1207 75.1697V74.4717C37.1207 73.5205 36.9708 72.8122 36.6709 72.3469C36.3814 71.8712 35.9006 71.6334 35.2285 71.6334C34.7322 71.6334 34.1893 71.7316 33.5999 71.9281C33.0105 72.1246 32.3643 72.4296 31.6612 72.8432L30.5134 69.7567C31.2993 69.281 32.1627 68.9191 33.1036 68.671C34.0446 68.4228 35.0372 68.2987 36.0815 68.2987ZM37.1207 77.9305L35.9575 77.9925C35.0786 78.0339 34.422 78.2821 33.9877 78.737C33.5637 79.1817 33.3518 79.8331 33.3518 80.6913C33.3518 81.4668 33.481 82.0459 33.7395 82.4284C34.0084 82.811 34.3961 83.0023 34.9028 83.0023C35.5542 83.0023 36.0867 82.6869 36.5003 82.0562C36.9139 81.4254 37.1207 80.5776 37.1207 79.5125V77.9305ZM51.6314 68.2987C53.0997 68.2987 54.2267 68.8312 55.0126 69.8963C55.8088 70.951 56.2068 72.4865 56.2068 74.5028V85.9958H52.0812V75.697C52.0812 74.4769 51.9571 73.5567 51.7089 72.9362C51.4608 72.3055 50.9903 71.9901 50.2975 71.9901C49.4289 71.9901 48.8189 72.4141 48.4673 73.262C48.1261 74.1098 47.9555 75.5678 47.9555 77.6358V85.9958H43.8298V68.6244H47.1024L47.5367 70.8424H47.8004C48.0589 70.2944 48.3742 69.8342 48.7465 69.462C49.1187 69.0794 49.5478 68.7899 50.0338 68.5934C50.5198 68.397 51.0523 68.2987 51.6314 68.2987ZM64.6685 86.306C63.2209 86.306 62.0111 85.9854 61.0392 85.3443C60.0776 84.6929 59.3537 83.7106 58.8678 82.3974C58.3921 81.0739 58.1543 79.404 58.1543 77.3876C58.1543 75.6298 58.3869 74.0685 58.8523 72.7036C59.3176 71.3284 60.0362 70.253 61.0082 69.4775C61.9801 68.6916 63.2209 68.2987 64.7306 68.2987C65.5888 68.2987 66.3591 68.397 67.0416 68.5934C67.7344 68.7795 68.3806 69.0639 68.9804 69.4465L67.8326 72.7501C67.357 72.4606 66.8865 72.2486 66.4212 72.1142C65.9662 71.9694 65.5061 71.8971 65.0408 71.8971C64.4721 71.8971 63.9861 72.109 63.5828 72.533C63.1796 72.9466 62.8694 73.5618 62.6522 74.3787C62.4454 75.1852 62.342 76.1882 62.342 77.3876C62.342 78.5768 62.4454 79.5694 62.6522 80.3656C62.8694 81.1618 63.1796 81.7615 63.5828 82.1648C63.9964 82.5577 64.5031 82.7541 65.1028 82.7541C65.6922 82.7541 66.2868 82.6456 66.8865 82.4284C67.4862 82.2113 68.0704 81.8959 68.6391 81.4823V85.0186C68.0808 85.4632 67.4552 85.789 66.7624 85.9958C66.08 86.2026 65.382 86.306 64.6685 86.306ZM76.3253 82.6921C76.6148 82.6921 76.9199 82.6559 77.2404 82.5835C77.5713 82.5008 77.9125 82.3767 78.2641 82.2113V85.5149C77.8091 85.7734 77.3076 85.9699 76.7596 86.1043C76.2219 86.2387 75.648 86.306 75.038 86.306C74.0453 86.306 73.2336 86.1095 72.6029 85.7166C71.9825 85.3133 71.5275 84.7084 71.238 83.9019C70.9485 83.085 70.8037 82.0562 70.8037 80.8154V72.0522H69.0976V69.8342L71.1294 68.7485L72.1066 64.964H74.9294V68.6244H78.0469V72.0522H74.9294V80.6603C74.9294 81.3427 75.0328 81.8546 75.2396 82.1958C75.4568 82.5267 75.8187 82.6921 76.3253 82.6921ZM91.9992 68.6244V85.9958H88.7576L88.2923 83.7778H88.0596C87.8011 84.3362 87.4858 84.8015 87.1135 85.1737C86.7413 85.546 86.3122 85.8251 85.8262 86.0113C85.3505 86.2077 84.818 86.306 84.2287 86.306C83.205 86.306 82.3519 86.0526 81.6695 85.546C80.987 85.0393 80.4752 84.3155 80.134 83.3745C79.7928 82.4233 79.6221 81.2859 79.6221 79.9623V68.6244H83.7478V78.7215C83.7478 80.0244 83.8771 81.0015 84.1356 81.6529C84.3941 82.3044 84.8129 82.6301 85.3919 82.6301C86.0847 82.6301 86.6069 82.4284 86.9584 82.0252C87.31 81.6219 87.5478 81.0325 87.6719 80.257C87.8063 79.4815 87.8735 78.5457 87.8735 77.4497V68.6244H91.9992ZM103.858 80.9084C103.858 82.0872 103.635 83.0799 103.191 83.8864C102.756 84.6826 102.12 85.2875 101.283 85.7011C100.456 86.1043 99.4579 86.306 98.2895 86.306C97.452 86.306 96.6506 86.2232 95.8854 86.0578C95.1306 85.9027 94.4171 85.6597 93.745 85.3288V81.3272C94.3034 81.7098 94.9497 82.0407 95.6838 82.3199C96.4179 82.5887 97.1624 82.7231 97.9173 82.7231C98.4963 82.7231 98.9409 82.5887 99.2511 82.3199C99.5613 82.051 99.7164 81.6581 99.7164 81.1411C99.7164 80.8516 99.6544 80.5827 99.5303 80.3346C99.4062 80.0761 99.1581 79.8072 98.7858 79.528C98.4136 79.2385 97.8552 78.9076 97.1107 78.5354C96.3973 78.1425 95.7872 77.6927 95.2805 77.186C94.7739 76.6794 94.3861 76.1003 94.1173 75.4489C93.8484 74.7975 93.714 74.0581 93.714 73.2309C93.714 71.7006 94.1897 70.496 95.1409 69.6171C96.0922 68.7382 97.3951 68.2987 99.0495 68.2987C99.8974 68.2987 100.694 68.4176 101.438 68.6555C102.193 68.8829 102.932 69.219 103.656 69.6636L102.524 72.8432C102.027 72.5123 101.505 72.2331 100.957 72.0056C100.409 71.7782 99.8509 71.6644 99.2821 71.6644C98.7755 71.6644 98.3877 71.7885 98.1189 72.0367C97.85 72.2745 97.7156 72.6054 97.7156 73.0293C97.7156 73.3292 97.7777 73.5877 97.9017 73.8048C98.0258 74.022 98.2688 74.2649 98.6307 74.5338C99.003 74.7923 99.5458 75.1387 100.259 75.573C100.973 75.9866 101.598 76.4364 102.136 76.9223C102.674 77.4083 103.092 77.9719 103.392 78.6129C103.703 79.254 103.858 80.0192 103.858 80.9084Z" fill="#A6A6A6"/>
<defs>
<linearGradient id="paint0_linear_4034_9389" x1="31.3324" y1="33.8807" x2="99.0547" y2="42.1395" gradientUnits="userSpaceOnUse">
<stop stop-color="#FECA0F"/>
<stop offset="1" stop-color="#FCF1CA"/>
</linearGradient>
</defs>
</svg>
